<?xml version="1.0" encoding="UTF-8" ?>
<!DOCTYPE svg PUBLIC "-//W3C//DTD SVG 1.1//EN" "http://www.w3.org/Graphics/SVG/1.1/DTD/svg11.dtd">
<svg width="550pt" height="550pt" viewBox="0 0 550 550" version="1.1" xmlns="http://www.w3.org/2000/svg">
<path fill="#e9d3d6" opacity="1.00" d=" M 256.45 1.58 C 320.24 -2.99 385.44 16.07 436.75 54.26 C 481.23 86.99 515.68 133.32 533.39 185.69 C 554.55 247.18 553.22 316.35 528.68 376.67 C 501.49 444.92 445.57 501.08 377.39 528.47 C 317.81 552.33 249.60 555.15 188.69 534.46 C 124.49 513.73 68.95 467.84 36.10 408.95 C -3.38 339.77 -10.28 252.74 18.40 178.37 C 42.84 112.30 94.24 56.83 157.99 26.97 C 188.85 12.41 222.41 3.91 256.45 1.58 M 264.45 77.51 C 254.03 78.13 243.71 79.68 233.47 81.65 C 171.65 94.28 117.59 138.97 93.10 197.05 C 65.78 258.24 73.88 333.12 112.10 387.92 C 149.57 442.37 215.69 476.58 282.02 472.91 C 311.20 472.09 340.15 464.58 366.03 451.05 C 421.63 422.77 461.74 366.66 470.88 304.99 C 480.48 243.32 459.08 177.41 413.84 134.16 C 374.96 95.47 319.26 74.06 264.45 77.51 Z" />
<path fill="#e9d3d6" opacity="1.00" d=" M 218.03 118.30 C 228.13 117.58 238.26 115.95 248.41 116.84 C 248.69 121.37 249.04 126.11 246.35 130.03 C 252.82 133.13 260.34 134.31 265.88 139.15 C 270.44 143.43 276.77 144.38 282.51 146.23 C 284.26 142.35 285.98 138.45 287.84 134.62 C 301.23 136.49 314.30 143.35 328.03 140.54 C 332.70 139.97 337.41 140.29 342.10 140.19 C 345.25 146.41 344.04 153.35 343.44 159.97 C 346.14 171.13 355.04 179.26 359.39 189.67 C 362.27 195.83 366.51 201.22 370.16 206.92 C 375.05 214.45 383.89 218.52 388.42 226.31 C 390.30 228.81 392.02 233.30 395.89 232.70 C 404.75 230.34 413.28 226.85 422.16 224.54 C 421.66 236.43 417.87 248.17 410.82 257.81 C 402.90 268.12 393.49 277.16 383.95 285.95 C 378.51 290.88 374.87 297.40 371.88 304.02 C 371.16 305.53 370.77 307.25 371.21 308.90 C 373.15 318.42 376.12 327.84 375.44 337.68 C 374.95 342.58 377.11 348.94 372.79 352.77 C 367.01 360.09 355.11 359.65 351.13 368.99 C 349.72 375.86 350.40 382.97 349.15 389.88 C 345.59 391.61 342.00 393.29 338.45 395.04 C 337.40 399.27 337.54 404.13 334.56 407.60 C 328.26 414.95 320.80 421.18 313.75 427.79 C 310.14 431.36 304.60 430.58 300.02 430.93 C 294.41 430.79 288.93 432.51 283.35 432.34 C 277.78 430.82 279.42 424.05 277.95 419.76 C 275.33 413.27 270.69 407.88 267.37 401.77 C 262.57 394.01 263.67 384.25 259.66 376.18 C 256.96 370.00 252.83 364.26 252.00 357.42 C 250.87 352.23 252.49 346.99 254.18 342.13 C 255.93 337.21 260.85 333.22 259.26 327.44 C 258.05 314.34 251.25 302.69 243.81 292.15 C 242.29 288.80 238.03 285.88 238.92 281.79 C 240.08 276.26 241.67 270.85 243.06 265.38 C 241.17 263.38 239.30 261.36 237.46 259.33 C 233.07 259.45 228.70 259.63 224.33 259.82 C 222.87 257.10 221.38 254.40 219.90 251.70 C 214.80 251.76 209.23 250.01 204.46 252.52 C 199.26 255.14 193.82 258.10 187.72 257.02 C 179.53 256.07 171.45 258.99 163.35 258.56 C 155.51 253.43 148.55 246.88 142.05 240.14 C 138.05 234.25 133.15 229.04 128.96 223.29 C 127.78 219.06 126.90 214.61 127.35 210.20 C 129.00 206.55 132.63 203.95 133.58 199.97 C 134.12 193.32 133.82 186.46 131.27 180.21 C 134.56 175.94 137.86 171.68 141.42 167.62 C 141.62 168.71 141.82 169.80 142.02 170.90 C 143.53 163.61 148.91 158.23 153.38 152.65 C 153.54 153.40 153.84 154.90 154.00 155.65 C 157.88 152.00 162.29 148.92 165.80 144.89 C 169.14 141.23 168.93 135.21 173.22 132.32 C 178.19 128.31 183.17 124.30 187.97 120.09 C 193.20 121.69 198.98 123.44 204.36 121.47 C 208.79 119.94 213.26 118.34 218.03 118.30 Z" />
<path fill="#e9d3d6" opacity="1.00" d=" M 391.83 356.92 C 400.11 351.14 408.30 345.12 414.92 337.42 C 415.59 342.04 416.72 346.68 415.90 351.37 C 410.45 367.02 403.31 381.99 395.85 396.77 C 392.72 396.55 388.21 397.25 386.32 393.91 C 385.02 390.83 384.36 387.53 383.69 384.26 C 382.63 379.23 387.99 375.95 389.92 371.88 C 393.48 367.38 386.81 360.69 391.83 356.92 Z" />
</svg>
