<?xml version="1.0" encoding="UTF-8" ?>
<!DOCTYPE svg PUBLIC "-//W3C//DTD SVG 1.1//EN" "http://www.w3.org/Graphics/SVG/1.1/DTD/svg11.dtd">
<svg width="550pt" height="550pt" viewBox="0 0 550 550" version="1.1" xmlns="http://www.w3.org/2000/svg">
<path fill="#e9d3d6" opacity="1.00" d=" M 256.45 2.56 C 329.15 -3.33 403.36 22.83 457.29 71.70 C 514.75 122.33 548.67 198.42 548.09 275.00 C 549.75 373.52 492.00 470.04 404.98 515.96 C 342.51 550.26 266.24 558.47 197.89 538.30 C 155.59 525.77 116.20 503.30 84.73 472.28 C 33.48 423.80 2.89 354.49 1.04 284.02 C -1.99 211.07 26.77 137.83 77.51 85.51 C 123.98 36.81 189.16 6.28 256.45 2.56 M 261.45 78.51 C 226.76 80.71 192.63 92.24 163.97 111.97 C 139.49 128.44 119.06 150.69 104.02 176.03 C 75.39 224.28 69.31 284.86 86.92 338.05 C 104.60 392.78 147.87 438.42 201.20 459.74 C 256.27 482.24 321.48 477.66 373.07 448.11 C 405.43 429.65 432.18 401.68 449.92 368.98 C 467.12 336.13 475.57 298.50 472.44 261.45 C 469.35 216.65 450.39 173.11 419.50 140.52 C 379.53 97.74 319.99 73.64 261.45 78.51 Z" />
<path fill="#e9d3d6" opacity="1.00" d=" M 257.26 176.34 C 267.25 174.76 277.38 177.39 286.45 181.52 C 291.30 183.38 290.49 189.43 291.32 193.59 C 282.44 190.10 273.93 184.81 264.00 185.19 C 252.05 184.46 239.49 194.50 240.11 207.00 C 239.88 212.62 242.06 218.89 247.04 221.94 C 260.01 232.10 278.45 232.50 289.78 245.20 C 294.28 249.35 295.08 255.67 295.56 261.46 C 297.95 279.53 281.24 297.11 263.03 296.04 C 251.85 297.27 241.55 292.04 231.95 287.10 C 231.97 284.33 231.99 278.79 232.00 276.02 C 242.63 282.55 254.85 290.85 268.04 287.09 C 283.33 284.67 291.88 263.57 281.30 251.71 C 270.72 240.00 253.93 238.05 241.06 229.93 C 229.09 222.20 226.95 204.69 233.95 192.97 C 238.66 184.12 247.83 178.80 257.26 176.34 Z" />
<path fill="#e9d3d6" opacity="1.00" d=" M 352.94 184.96 C 354.74 181.17 356.54 176.80 361.36 176.05 C 379.35 216.04 398.11 255.68 416.22 295.62 C 412.13 294.83 406.51 295.22 404.52 290.59 C 398.76 280.22 395.10 268.82 389.57 258.33 C 388.31 255.61 385.05 254.10 382.02 255.11 C 365.38 254.78 348.72 254.56 332.09 255.25 C 328.86 255.64 328.04 259.50 326.75 261.87 C 321.97 273.12 317.10 284.36 311.12 295.05 C 308.31 295.00 305.51 294.95 302.71 294.90 C 318.96 258.04 336.54 221.76 352.94 184.96 M 351.11 209.06 C 345.82 221.79 339.35 234.02 334.40 246.89 C 351.01 247.11 367.62 247.04 384.24 246.89 C 375.84 228.95 368.21 210.62 359.32 192.93 C 355.24 197.50 353.76 203.67 351.11 209.06 Z" />
<path fill="#e9d3d6" opacity="1.00" d=" M 134.00 177.98 C 152.36 179.16 172.91 174.59 189.72 184.31 C 201.69 191.48 205.19 207.65 200.20 220.17 C 196.38 228.08 188.72 232.74 181.20 236.56 C 186.00 241.85 191.00 247.05 194.85 253.11 C 203.82 266.92 213.19 280.48 221.49 294.71 C 218.29 294.77 215.20 294.95 212.03 295.02 C 200.43 279.39 191.54 261.85 179.18 246.81 C 170.09 236.43 155.18 239.39 143.01 238.90 C 142.98 257.46 142.93 276.03 143.16 294.59 C 140.21 295.62 137.14 296.26 134.04 296.64 C 133.95 257.09 134.01 217.53 134.00 177.98 M 144.67 187.91 C 143.59 201.50 144.04 215.15 143.81 228.77 C 151.72 230.32 159.89 230.43 167.89 229.77 C 174.71 228.74 182.77 227.02 186.97 220.97 C 193.76 212.79 191.88 198.93 183.00 193.00 C 172.51 183.67 157.52 187.22 144.67 187.91 Z" />
<path fill="#e9d3d6" opacity="1.00" d=" M 134.00 303.00 C 228.00 303.00 322.00 303.00 415.99 303.00 C 416.01 326.67 416.01 350.33 415.99 373.99 C 321.93 373.98 227.87 374.05 133.81 373.96 C 133.93 350.31 134.08 326.65 134.00 303.00 Z" />
</svg>
