<svg xmlns="http://www.w3.org/2000/svg" height="365" viewBox="0 0 1536 365.3" style="enable-background:new 0 0 480 165.3">
    <g id="icon-facebook">
        <a xlink:href="https://www.facebook.com/diasporachangemakers.net/" target="_blank">
            <path d="m1004 120c34.5 0 62 28 62 63 0 31.9-23.9 58-54.7 62v-46h21.5l2-15.6h-23.4v-7.8c0-4.3 3.5-7.8 7.8-7.8h15.6v-15.6h-15.6c-12.9 0-23.4 10.5-23.4 23.4v7.8h-11.7v15.6h11.7v30.9 14 1.5c-30.8-3.8-54.7-30-54.7-62-.1-34.5 27.9-62 62-62"/>
        </a>
    </g>
    <g id="icon-info">
        <a xlink:href="http://plnkr.co/users/rafszul/" target="_blank">
            <path d="m261 120c-34.4 0-62 27.9-62 62s27.9 62 62 62 62-27.9 62-62-27.9-62-62-62m0 113c-27.9 0-50.6-22.7-50.6-50.6s22.7-50.6 50.6-50.6 50.6 22.7 50.6 50.6-22.6 50.6-50.6 50.6m-7.7-82h15.6v15.6h-15.6v-15.6m23.3 62h-31v-7.8h7.8v-23.4h-7.8v-7.8h23.4v31h7.8v7.8"/>
        </a>
    </g>
    <g id="icon-github">
        <a xlink:href="https://github.com/diasporaChangemakers-net" target="_blank">
            <path d="m762 120c-34.4 0-62 27.9-62 62s27.9 62 62 62c34.4 0 62-27.9 62-62s-27.9-62-62-62m37 99c-4.8 4.8-10.4 8.6-16.6 11.2-1.6.7-3.2 1.3-4.8 1.8v-9.3c0-4.9-1.7-8.5-5-10.8 2.1-.2 4-.5 5.8-.9 1.8-.4 3.6-.9 5.6-1.6 2-.7 3.7-1.5 5.3-2.5s3.1-2.2 4.5-3.7c1.4-1.5 2.6-3.2 3.6-5.2 1-1.9 1.7-4.2 2.3-6.9.6-2.7.9-5.7.9-8.9 0-6.3-2-11.6-6.1-16 1.9-4.9 1.7-10.2-.6-15.9l-1.5-.2c-1.1-.1-2.9.3-5.7 1.3s-5.8 2.7-9.2 5c-4.8-1.3-9.8-2-15-2-5.2 0-10.2.7-15 2-2.1-1.5-4.2-2.7-6.1-3.6s-3.5-1.6-4.6-1.9c-1.2-.3-2.2-.6-3.2-.6-1-.1-1.6-.1-1.9-.1-.3 0-.5.1-.6.1-2.3 5.8-2.5 11-.6 15.9-4.1 4.4-6.1 9.8-6.1 16 0 3.2.3 6.2.9 8.9.6 2.7 1.3 5 2.3 6.9s2.2 3.6 3.6 5.2 2.9 2.8 4.5 3.7 3.3 1.8 5.3 2.5c2 .7 3.8 1.2 5.6 1.6 1.8.4 3.7.6 5.8.9-3.3 2.3-5 5.9-5 10.8v9.5c-1.8-.5-3.6-1.2-5.4-1.9-6.2-2.6-11.8-6.4-16.6-11.2s-8.6-10.4-11.2-16.6c-2.7-6.4-4.1-13.3-4.1-20.4 0-7.1 1.4-13.9 4.1-20.4 2.6-6.2 6.4-11.8 11.2-16.6s10.4-8.6 16.6-11.2c6.4-2.7 13.3-4.1 20.4-4.1 7.1 0 13.9 1.4 20.4 4.1 6.2 2.6 11.8 6.4 16.6 11.2 4.8 4.8 8.6 10.4 11.2 16.6 2.7 6.4 4.1 13.3 4.1 20.4s-1.4 13.9-4.1 20.4c-3 6.1-6.8 11.6-11.6 16.5"/>
        </a>
    </g>
    <g id="icon-chat">
        <a xlink:href="http://wearetheplaymakers.tumblr.com/talk2us" target="_blank">
            <path d="m1248 114c35.4 0 64 23 64 51.9s-28.7 51.8-64 51.8c-3.4 0-6.7-.2-10-.6-13.8 13.7-29.7 16.2-45.6 16.5v-3.4c8.6-4.2 15.5-11.8 15.5-20.5 0-1.2-.1-2.4-.3-3.6-14.5-9.5-23.8-24-23.8-40 .1-28.6 28.8-51.8 64-51.8m68.9 116c0 7.5 4.9 14 12.3 17.6v2.9c-13.8-.3-26.4-2.4-38-14.2-2.8.4-5.7.5-8.7.5-12.8 0-24.5-3.4-33.9-9.2 19.3-.1 37.6-6.3 51-17.5 7-5.6 12.5-12.3 16.4-19.7 4.1-7.9 6.2-16.2 6.2-24.9 0-1.4-.1-2.8-.2-4.2 9.7 8 15.7 18.9 15.7 30.9 0 14-8 26.4-20.6 34.6-.2 1.1-.3 2.1-.3 3.2"/>
        </a>
    </g>
    <g id="icon-site">
        <a xlink:href="http://diasporachangemakers-net.surge.sh/" target="_blank">
            <path d="m493 160l-8.7-8.2c1-1.8 1.6-3.9 1.6-6.1 0-7.1-5.7-12.8-12.8-12.8s-12.8 5.7-12.8 12.8 5.8 12.8 12.8 12.8c2.5 0 4.8-.7 6.8-2l8.6 8.2c1.4-1.7 2.9-3.3 4.5-4.7m36.6-1l11.5-19.4c1.1.3 2.3.6 3.5.6 7.1 0 12.8-5.7 12.8-12.8 0-7.1-5.7-12.8-12.8-12.8-7.1 0-12.8 5.7-12.8 12.8 0 3.5 1.4 6.7 3.7 9l-11.5 19.3c2 .8 3.9 1.9 5.6 3.3m39.7 16.2c-5.5 0-10.2 3.5-12 8.4l-16-1.6c0 .1 0 .2 0 .4 0 2.1-.2 4.1-.6 6.1l16 1.6c1 6.1 6.2 10.8 12.6 10.8 7.1 0 12.8-5.7 12.8-12.8 0-7.2-5.7-12.9-12.8-12.9m-44 50l-3.6-15.6c-2 .7-4.1 1.2-6.3 1.5l3.6 15.6c-4.1 2.1-6.9 6.4-6.9 11.3 0 7.1 5.7 12.8 12.8 12.8 7.1 0 12.8-5.7 12.8-12.8 0-6.9-5.5-12.6-12.4-12.8m-41.9-37l-19.9 6.7c-2.3-3.5-6.2-5.8-10.7-5.8-7.1 0-12.8 5.7-12.8 12.8 0 7.1 5.7 12.8 12.8 12.8 7.1 0 12.8-5.7 12.8-12.8 0-.3-.1-.6-.1-.9l20-6.7c-.9-1.9-1.6-3.9-2.1-6.1m28.7-28c12.2 0 22 9.9 22 22 0 12.2-9.9 22-22 22-12.2 0-22-9.9-22-22 0-12 9.8-22 22-22"/>
        </a>
    </g>
</svg>
