<?xml version="1.0" encoding="UTF-8" ?>
<!DOCTYPE svg PUBLIC "-//W3C//DTD SVG 1.1//EN" "http://www.w3.org/Graphics/SVG/1.1/DTD/svg11.dtd">
<svg width="550pt" height="550pt" viewBox="0 0 550 550" version="1.1" xmlns="http://www.w3.org/2000/svg">
<path fill="#e9d3d6" opacity="1.00" d=" M 261.33 2.45 C 302.31 -0.12 343.45 8.08 381.34 23.57 C 452.33 53.73 509.31 114.86 534.00 188.00 C 547.47 228.61 551.30 272.31 545.69 314.71 C 534.66 391.88 489.25 463.56 423.36 505.43 C 386.25 529.87 342.88 544.49 298.66 548.44 C 273.56 549.51 248.00 550.29 223.33 544.62 C 153.29 531.66 89.18 489.76 49.11 430.92 C 4.86 367.57 -10.04 284.82 8.80 209.91 C 26.87 136.19 77.24 71.11 144.08 35.13 C 179.95 15.26 220.51 4.71 261.33 2.45 M 269.34 78.56 C 211.52 79.53 155.06 108.03 119.60 153.63 C 93.30 186.81 77.99 228.64 76.98 270.99 C 75.89 314.37 89.22 358.06 115.00 393.00 C 154.92 448.47 225.06 480.92 293.29 473.35 C 332.68 470.12 370.65 454.22 401.09 429.10 C 446.37 392.25 473.48 334.36 473.04 276.00 C 472.88 239.90 462.96 203.80 443.96 173.06 C 427.61 145.84 404.12 123.44 377.33 106.63 C 345.04 87.29 307.00 76.87 269.34 78.56 Z" />
<path fill="#e9d3d6" opacity="1.00" d=" M 368.05 180.03 C 379.35 180.04 390.67 179.83 401.98 180.07 C 402.10 184.02 402.09 187.98 401.96 191.93 C 398.36 194.27 394.12 195.39 389.95 196.24 C 392.77 199.36 397.39 200.60 400.77 203.20 C 400.96 206.94 403.88 211.99 400.77 214.84 C 390.13 214.36 379.65 216.80 369.02 215.94 C 369.02 213.46 369.02 208.51 369.02 206.04 C 374.68 205.88 380.36 206.14 386.03 205.95 C 385.99 205.51 385.90 204.63 385.85 204.19 C 380.53 201.28 373.66 199.95 369.11 196.20 C 375.12 193.46 381.51 191.15 387.23 188.10 C 380.82 187.83 374.42 188.20 368.02 187.93 C 367.90 185.30 367.91 182.66 368.05 180.03 Z" />
<path fill="#e9d3d6" opacity="1.00" d=" M 378.29 221.33 C 383.16 219.55 387.12 225.14 386.43 229.66 C 387.88 232.96 385.61 240.08 388.86 241.84 C 391.15 236.67 389.75 229.85 390.68 224.07 C 388.23 218.58 401.96 219.46 397.31 225.93 C 398.01 234.08 399.87 244.10 393.76 250.75 C 387.40 252.90 380.54 251.79 374.06 250.89 C 373.96 242.27 373.87 233.65 374.06 225.04 C 374.37 222.72 376.11 221.63 378.29 221.33 M 380.29 229.31 C 377.52 229.84 376.76 231.74 378.00 235.01 C 378.15 237.75 377.81 245.60 383.96 242.00 C 384.10 238.07 384.06 234.14 383.86 230.23 C 383.15 228.91 381.56 228.69 380.29 229.31 Z" />
<path fill="#e9d3d6" opacity="1.00" d=" M 371.01 257.04 C 379.34 256.92 387.67 257.00 396.00 256.99 C 402.37 252.82 402.79 261.66 399.77 263.85 C 396.05 263.90 388.62 264.01 384.90 264.06 C 386.81 267.38 389.19 270.39 391.61 273.36 C 393.81 276.50 393.61 280.52 392.83 284.10 C 389.52 282.00 388.26 278.00 385.80 275.11 C 382.76 275.06 379.58 276.34 377.19 278.20 C 378.51 283.66 376.50 285.56 371.16 283.91 C 369.78 280.88 369.78 277.42 370.14 274.18 C 373.14 271.50 376.98 269.62 380.92 268.76 C 380.34 267.50 379.77 266.20 378.80 265.19 C 376.68 263.68 372.77 266.41 371.12 263.78 C 371.10 262.09 371.04 258.72 371.01 257.04 Z" />
<path fill="#e9d3d6" opacity="1.00" d=" M 331.18 259.07 C 341.71 259.05 352.28 258.72 362.80 259.17 C 365.13 261.37 367.01 264.48 365.72 267.94 C 365.04 272.59 365.11 277.30 364.91 282.00 C 363.45 281.99 360.52 281.98 359.06 281.97 C 358.25 276.75 358.14 271.45 357.83 266.20 C 356.83 264.43 354.64 265.11 352.99 265.01 C 354.72 270.96 355.90 277.34 353.40 283.31 C 353.29 285.53 351.80 287.13 349.70 287.70 C 343.48 288.11 337.24 288.18 331.02 287.93 C 332.33 285.29 329.30 280.41 332.15 278.29 C 336.36 278.70 340.53 280.09 344.80 279.89 C 347.96 277.07 344.88 271.59 345.99 268.03 C 340.65 268.01 335.33 267.99 330.01 267.95 C 330.21 264.95 330.74 262.03 331.18 259.07 Z" />
<path fill="#e9d3d6" opacity="1.00" d=" M 379.29 286.28 C 384.46 285.87 391.19 284.71 395.06 289.00 C 398.71 296.66 400.37 308.21 393.75 314.77 C 390.82 315.16 388.00 316.11 385.03 316.03 C 384.85 308.68 385.16 301.34 384.95 294.00 C 383.69 293.93 382.43 293.97 381.18 294.11 C 378.85 299.72 380.60 306.11 379.95 312.00 C 378.47 311.99 375.51 311.99 374.03 311.99 C 374.12 304.74 373.58 297.44 374.20 290.23 C 375.68 288.65 377.24 287.08 379.29 286.28 M 389.08 296.01 C 388.88 300.28 388.78 304.55 388.40 308.82 C 389.11 311.00 391.72 308.74 392.70 307.73 C 394.53 303.65 395.72 294.39 389.08 296.01 Z" />
<path fill="#e9d3d6" opacity="1.00" d=" M 337.30 293.30 C 343.17 292.89 349.08 292.81 354.97 293.06 C 354.88 302.64 355.32 312.25 354.86 321.82 C 351.56 323.34 347.40 323.83 344.28 321.72 C 341.57 315.99 343.87 309.10 341.91 303.05 C 341.19 303.04 339.76 303.01 339.04 303.00 C 339.04 309.58 338.99 316.17 338.89 322.75 C 336.74 323.03 333.69 325.28 332.15 322.77 C 331.88 315.84 331.94 308.91 331.99 301.98 C 332.05 298.40 333.49 294.36 337.30 293.30 M 345.04 302.00 C 344.89 305.92 344.92 309.84 345.14 313.77 C 346.31 315.78 350.81 315.66 350.97 312.97 C 350.10 308.45 354.43 298.10 345.04 302.00 Z" />
<path fill="#e9d3d6" opacity="1.00" d=" M 391.34 318.54 C 392.75 318.40 395.58 318.13 397.00 318.00 C 395.99 321.56 398.28 328.59 393.15 328.15 C 394.56 332.75 397.75 338.15 394.75 342.74 C 392.31 343.49 389.67 344.07 387.13 343.98 C 388.68 342.44 383.29 335.27 387.99 335.93 C 391.42 335.80 388.58 330.08 387.78 328.13 C 382.58 328.03 377.39 327.96 372.20 327.92 C 371.85 325.29 370.93 322.75 370.96 320.09 C 377.80 320.29 384.53 318.97 391.34 318.54 Z" />
<path fill="#e9d3d6" opacity="1.00" d=" M 326.97 327.02 C 335.78 326.91 344.59 327.62 353.35 328.42 C 358.08 326.75 359.39 331.70 358.95 334.86 C 348.84 336.43 338.39 334.23 328.17 334.88 C 326.96 332.45 327.02 329.66 326.97 327.02 Z" />
<path fill="#e9d3d6" opacity="1.00" d=" M 343.30 340.37 C 347.80 339.60 353.22 341.56 354.64 346.31 C 355.33 351.47 357.00 357.57 353.08 361.88 C 355.66 364.30 359.80 362.40 363.00 363.10 C 360.96 364.38 364.90 369.58 361.82 370.56 C 351.69 369.95 340.86 373.09 331.11 369.78 C 332.42 367.92 328.96 362.17 332.81 361.60 C 333.21 355.75 332.77 349.90 333.06 344.06 C 336.12 341.97 339.70 341.02 343.30 340.37 M 342.24 349.11 C 339.16 352.70 341.53 358.52 342.16 362.94 C 348.27 365.87 350.09 359.45 349.03 355.01 C 351.78 349.84 345.95 347.33 342.24 349.11 Z" />
<path fill="#e9d3d6" opacity="1.00" d=" M 375.23 346.14 C 377.82 345.95 380.41 345.92 383.01 346.03 C 384.29 351.95 380.03 358.31 383.19 363.86 C 383.61 363.89 384.45 363.94 384.87 363.97 C 386.20 358.47 385.10 352.59 387.31 347.29 C 388.69 344.16 393.08 346.26 395.79 346.17 C 401.34 350.71 398.17 358.89 399.02 365.00 C 403.85 372.33 389.15 372.34 394.04 365.00 C 394.58 360.91 393.49 357.03 392.80 353.08 C 392.37 353.06 391.52 353.03 391.09 353.01 C 390.25 357.93 391.15 363.39 389.06 368.03 C 387.64 372.63 381.12 368.59 378.04 369.97 C 373.23 368.57 374.98 361.72 374.02 358.01 C 375.20 354.48 371.79 348.80 375.23 346.14 Z" />
<path fill="#e9d3d6" opacity="1.00" d=" M 270.17 352.09 C 275.13 349.65 277.36 356.10 276.82 359.67 C 272.42 360.68 275.37 367.08 278.92 367.16 C 283.49 367.39 278.05 375.01 274.97 371.03 C 271.30 371.90 268.68 367.35 269.76 364.07 C 268.52 360.20 266.90 355.38 270.17 352.09 Z" />
<path fill="#e9d3d6" opacity="1.00" d=" M 281.05 352.01 L 285.83 352.03 C 283.22 360.53 292.51 357.29 296.75 358.19 C 299.62 359.94 297.76 364.11 297.84 366.93 C 296.90 369.48 297.41 374.06 292.10 371.00 C 291.15 368.90 293.96 361.31 289.00 361.97 C 284.44 361.59 286.01 367.89 284.85 370.93 C 283.95 370.55 283.06 370.16 282.19 369.74 C 281.08 363.90 280.74 357.93 281.05 352.01 Z" />
<path fill="#e9d3d6" opacity="1.00" d=" M 166.18 353.09 C 167.31 352.85 168.21 353.22 168.87 354.19 C 168.29 358.40 167.06 362.51 166.78 366.78 C 165.91 368.57 163.73 367.94 162.12 367.96 C 161.31 366.46 159.69 363.46 158.87 361.95 C 155.66 364.67 154.11 370.71 148.10 368.00 C 148.31 363.29 147.35 358.68 146.96 354.02 C 153.40 350.90 152.21 357.87 153.27 361.15 C 154.96 358.80 155.91 354.00 159.73 355.14 C 160.88 356.98 161.10 359.82 162.92 360.99 C 164.47 358.55 163.95 355.21 166.18 353.09 Z" />
<path fill="#e9d3d6" opacity="1.00" d=" M 175.30 354.28 C 178.98 354.31 183.41 352.99 186.71 355.29 C 187.81 356.94 188.28 358.88 187.97 360.85 C 183.68 361.53 179.36 361.90 175.03 362.11 C 173.76 367.92 185.68 360.60 186.02 365.01 C 186.00 365.75 185.98 367.23 185.97 367.97 C 181.37 367.93 176.75 368.29 172.17 367.87 C 168.15 363.75 169.69 356.01 175.30 354.28 M 178.28 356.31 C 176.22 356.55 175.63 358.03 175.98 359.95 C 178.66 360.07 181.34 360.08 184.03 359.97 C 185.10 356.57 180.81 355.40 178.28 356.31 Z" />
<path fill="#e9d3d6" opacity="1.00" d=" M 200.23 353.96 C 205.69 354.83 212.48 352.13 217.25 355.75 C 221.16 357.88 217.89 363.45 218.89 366.77 C 214.74 370.00 207.97 366.97 203.04 367.96 C 200.08 367.80 199.52 362.36 202.28 361.26 C 205.93 360.89 209.56 360.42 213.19 359.85 C 209.93 356.43 204.28 358.91 200.22 357.96 C 200.73 356.63 200.70 355.28 200.23 353.96 M 206.03 362.01 C 205.95 363.34 205.96 364.67 206.03 366.01 C 206.60 364.87 212.98 366.75 212.97 363.95 C 214.52 359.65 206.80 363.78 206.03 362.01 Z" />
<path fill="#e9d3d6" opacity="1.00" d=" M 220.92 354.14 C 224.01 354.88 227.11 356.46 230.35 355.61 C 234.98 351.60 238.00 358.65 234.79 360.86 C 232.28 361.10 229.17 357.01 227.20 360.24 C 226.35 362.87 229.01 371.46 223.20 369.90 C 220.74 365.41 222.26 359.28 220.92 354.14 Z" />
<path fill="#e9d3d6" opacity="1.00" d=" M 243.33 354.42 C 248.67 352.91 257.90 353.31 255.00 361.72 C 251.01 361.06 246.89 362.40 243.02 361.02 C 242.25 364.38 243.91 365.37 248.00 364.00 C 254.31 360.37 252.88 365.35 252.97 367.98 C 248.72 367.87 244.43 368.41 240.21 367.82 C 235.68 364.43 237.06 354.73 243.33 354.42 M 245.22 356.12 C 243.82 356.91 243.97 358.50 243.98 359.89 C 246.14 359.53 248.72 359.58 251.01 359.66 C 251.64 356.73 248.54 353.82 245.22 356.12 Z" />
<path fill="#e9d3d6" opacity="1.00" d=" M 305.30 354.28 C 308.98 354.31 313.40 352.99 316.71 355.29 C 317.81 356.94 318.28 358.88 317.97 360.85 C 314.01 361.47 310.02 361.78 306.04 362.13 C 306.03 362.58 306.01 363.50 305.99 363.95 C 308.49 363.98 313.48 364.03 315.97 364.05 C 316.04 365.35 316.04 366.66 315.97 367.97 C 311.36 367.93 306.75 368.29 302.17 367.87 C 298.15 363.75 299.69 356.01 305.30 354.28 M 307.21 356.10 C 306.70 357.35 306.15 358.60 305.92 359.94 C 308.62 360.07 311.32 360.08 314.02 359.97 C 315.29 355.91 309.77 355.87 307.21 356.10 Z" />
</svg>
